<svg viewBox="0 0 141 141" fill="none" xmlns="http://www.w3.org/2000/svg">
<path d="M120.799 24.9564L140.56 34.5614V140.56L105.902 124.299L69.5083 140.56L35.4294 124.299L0 140.56V34.5614L35.4294 17.7148L50.0504 24.8462" fill="#2B8A3D" fill-opacity="0.5"/>
<path d="M85.7415 95.9459C85.9551 96.0837 85.9 95.9941 85.7415 95.8081C85.5761 95.9941 85.5279 96.0837 85.7415 95.9459Z" stroke="white" stroke-width="12" stroke-linecap="round" stroke-linejoin="round"/>
<path d="M85.7415 0C65.8565 0 49.7334 16.44 49.7334 36.7178C49.7334 43.5185 50.8221 47.2185 52.6204 53.02C58.0016 70.3764 85.7415 95.8081 85.7415 95.8081C85.7415 95.8081 113.454 70.404 118.842 53.1096C120.654 47.2874 121.757 43.5598 121.757 36.7178C121.757 16.44 105.634 0 85.7484 0H85.7415ZM85.8862 51.3319C77.9281 51.3319 71.4788 44.8827 71.4788 36.9245C71.4788 28.9664 77.9281 22.5171 85.8862 22.5171C93.8444 22.5171 100.294 28.9664 100.294 36.9245C100.294 44.8827 93.8444 51.3319 85.8862 51.3319Z" fill="#2B8A3D"/>
</svg>
